<svg xmlns="http://www.w3.org/2000/svg" width="3486.6" height="925" viewBox="0 102 3486.6 925" enable-background="new 0 102 3486.6 925"><path fill="#E1005D" d="M0 102h3486.6v925H0z"/><path fill="#fff" d="M1089.4 574.6h-.9l-43.4-161.1H923.3v303.8h70v-217h.9l57.1 217h59.3l55.4-217h.9v217h86.8V413.5H1131zM1277.5 717.3h228v-72.7h-136.8v-49.1h110.7v-67.8h-110.7v-44.3h136.8v-69.9h-228zM1751 450.7c-32.8-31.4-67.7-37.2-111.6-37.2h-112v303.8h118.2c42.1 0 79.7-9.7 109.8-41.2 27.9-28.8 42-70.4 42-110.3.1-43.4-14.5-85-46.4-115.1zM1685.9 622c-4.8 8.4-11.5 15.1-19.9 19.9-11.5 6.2-19.5 5.3-31.9 5.3h-13.3V482.5h10.6c21.3 0 35.4-.9 50 17.3 12.8 16.8 18.6 43.4 18.6 63.8.1 20.4-3.5 40.7-14.1 58.4zM1814 413.5h93.9v303.8H1814zM2017.7 413.5l-94.3 303.8h75.7l18.6-59.8h81.1l17.3 59.8h95.2L2116 413.5h-98.3zm15.5 177.5l24.8-88.1 24.8 88.1h-49.6zM2456.8 530.8c-6.2-75.7-50.5-121.8-128-121.8-95.6 0-137.7 72.6-137.7 160.3 0 86.3 47.8 152.3 139 152.3 70 0 120.9-45.2 126.7-115.1l-85-5.3c-1.3 25.2-12.4 50.5-41.2 50.5-42.1 0-43.8-51.8-43.8-82.3 0-28.8 1.8-92.1 43-92.1 31.4 0 41.2 32.3 40.3 58l86.7-4.5zM2613.3 409.1c-92.5 0-145.2 66.4-145.2 157.2 0 86.4 53.1 155.4 145.2 155.4s145.2-69.1 145.2-155.4c0-90.8-52.7-157.2-145.2-157.2zm0 243c-42.5 0-45.6-56.2-45.6-85.4 0-29.6 4.4-89 45.6-89s45.6 59.4 45.6 89c0 29.2-3.1 85.4-45.6 85.4zM2980.6 413.5L2939 574.6h-.8l-43.5-161.1H2773v303.8h69.9v-217h.9l57.2 217h59.3l55.4-217h.8v217h86.8V413.5z"/></svg>